<?xml version="1.0" encoding="utf-8"?>
<!-- Generator: Adobe Illustrator 17.0.0, SVG Export Plug-In . SVG Version: 6.00 Build 0)  -->
<!DOCTYPE svg PUBLIC "-//W3C//DTD SVG 1.1//EN" "http://www.w3.org/Graphics/SVG/1.1/DTD/svg11.dtd">
<svg version="1.1" id="图层_1" xmlns="http://www.w3.org/2000/svg" xmlns:xlink="http://www.w3.org/1999/xlink" x="0px" y="0px"
	 width="16px" height="16px" viewBox="0 0 48 57" enable-background="new 0 0 48 57" xml:space="preserve">
<g>
	<path fill="#FFFFFF" d="M2.562,42.873V10.321h6.373c5.528,0,11.194-2.297,14.976-5.913c3.782,3.616,9.448,5.913,14.976,5.913h6.372
		v32.552L23.911,53.97L2.562,42.873z"/>
	<path d="M23.911,7.718c4.112,3.193,9.532,5.103,14.976,5.103h3.872v28.534l-18.848,9.797L5.063,41.355V12.821h3.872
		C14.379,12.821,19.799,10.911,23.911,7.718 M23.911,0.625c-3.122,4.352-9.211,7.196-14.976,7.196H0.063v36.571l23.848,12.396
		l23.848-12.396V7.821h-8.872C33.122,7.821,27.033,4.976,23.911,0.625L23.911,0.625z"/>
</g>
<rect x="12.625" y="25.19" fill="#040000" width="22.572" height="5"/>
<rect x="13.676" y="18.735" transform="matrix(0.5196 0.8544 -0.8544 0.5196 27.6123 -7.1664)" fill="#040000" width="13.006" height="4.474"/>
<rect x="21.198" y="18.735" transform="matrix(-0.5196 0.8544 -0.8544 -0.5196 60.013 8.2009)" fill="#040000" width="13.006" height="4.474"/>
<rect x="21.411" y="25.893" fill="#040000" width="5" height="18.607"/>
<rect x="12.625" y="33.506" fill="#040000" width="22.572" height="5"/>
</svg>
